# xmcd
# 
# Track frame offsets:
#     150
#     18107
#     36582
#     54842
#     79627
#     93895
#     115047
#     131332
#     151722
#     174147
#     188760
#     204030
#     224525
#     242792
# 
# Disc length: 3420
# 
# Revision: 1
# Processed by: cddbd v1.5.2PL0 Copyright (c) Steve Scherf et al.
# Submitted via: BonkEnc v1.0
# 
DISCID=9f0d5a0e
DTITLE=Zezé di Camargo and Luciano - Vol. 3 - Dois Corações e Uma História - Vol. 3
DYEAR=2004
DGENRE=Sertanejo Romantico
TTITLE0=Pão De Mel
TTITLE1=Indiferença
TTITLE2=Na Hora H
TTITLE3=Preciso Ser Amado
TTITLE4=Não Dá Pra Esperar
TTITLE5=Vivendo Por Viver
TTITLE6=E Deus Por Nós
TTITLE7=Quando A Gente Ama Demais
TTITLE8=Sorriso Bonito
TTITLE9=No Dia Em Que Eu Saí De Casa
TTITLE10=200 Anos
TTITLE11=Sem Medo De Ser Feliz
TTITLE12=Vem Ficar Comigo
TTITLE13=Doce Paixão
EXTD=by Toshiro - 2004
EXTT0=
EXTT1=
EXTT2=
EXTT3=
EXTT4=
EXTT5=
EXTT6=
EXTT7=
EXTT8=
EXTT9=
EXTT10=
EXTT11=
EXTT12=
EXTT13=
PLAYORDER=
